<svg width="508" height="487" viewBox="0 0 508 487" fill="none" xmlns="http://www.w3.org/2000/svg">
<path d="M314.438 201.089C320.079 206.187 328.784 205.746 333.881 200.105C338.979 194.465 338.538 185.759 332.897 180.662C327.256 175.564 318.551 176.005 313.454 181.646C308.356 187.287 308.797 195.992 314.438 201.089Z" fill="#0E181D"/>
<path d="M335.087 189.711C335.087 189.711 350.551 186.993 361.086 178.848C371.621 170.703 421.152 128.065 421.152 128.065C421.152 128.065 425.909 125.585 422.42 120.514C420.524 117.655 418.187 115.115 415.496 112.988C415.496 112.988 413.731 110.054 406.554 114.394C399.377 118.734 354.845 142.471 349.07 146.892C343.295 151.313 339.459 162.733 336.749 169.485C335.009 173.645 332.153 177.243 328.497 179.882L335.087 189.711Z" fill="#0E181D"/>
<path d="M320.214 201.229C320.214 201.229 316.262 216.424 319.296 229.395C322.329 242.367 340.536 305.129 340.536 305.129C340.536 305.129 340.814 310.487 346.876 309.419C350.265 308.882 353.546 307.812 356.599 306.247C356.599 306.247 360.001 305.859 359.035 297.529C358.069 289.199 354.979 238.831 353.356 231.741C351.733 224.651 342.939 216.418 337.924 211.147C334.862 207.837 332.775 203.745 331.893 199.322L320.214 201.229Z" fill="#0E181D"/>
<path d="M317.829 181.96C317.829 181.96 307.791 169.887 295.49 164.786C283.19 159.686 221.586 137.863 221.586 137.863C221.586 137.863 217.07 134.962 214.403 140.511C212.863 143.576 211.818 146.866 211.307 150.258C211.307 150.258 209.638 153.247 216.968 157.322C224.298 161.397 267.011 188.27 273.719 191.084C280.427 193.898 292.241 191.562 299.449 190.561C303.924 190.006 308.466 190.698 312.572 192.561L317.829 181.96Z" fill="#0E181D"/>
<path d="M319.277 195.772C321.837 198.086 325.788 197.886 328.102 195.326C330.415 192.765 330.215 188.815 327.655 186.501C325.095 184.188 321.144 184.388 318.831 186.948C316.517 189.508 316.717 193.459 319.277 195.772Z" fill="white"/>
<path d="M238.702 143.748L229.704 165.248L240.919 172.09L250.425 147.967L238.702 143.748Z" fill="#005BBB"/>
<path d="M250.428 147.963L240.922 172.086L252.12 178.903L262.65 152.385L250.428 147.963Z" fill="#FDC100"/>
<path d="M130.348 369.29C135.094 373.578 142.417 373.207 146.706 368.462C150.994 363.716 150.624 356.392 145.878 352.104C141.132 347.815 133.809 348.186 129.52 352.932C125.232 357.677 125.602 365.001 130.348 369.29Z" fill="#0E181D"/>
<path d="M147.72 359.717C147.72 359.717 160.73 357.43 169.593 350.578C178.456 343.725 220.126 307.854 220.126 307.854C220.126 307.854 224.128 305.769 221.193 301.502C219.598 299.097 217.632 296.96 215.368 295.17C215.368 295.17 213.883 292.702 207.845 296.354C201.808 300.005 164.343 319.974 159.484 323.694C154.626 327.413 151.398 337.02 149.118 342.701C147.655 346.201 145.252 349.228 142.176 351.448L147.72 359.717Z" fill="#0E181D"/>
<path d="M135.205 369.407C135.205 369.407 131.881 382.19 134.433 393.103C136.985 404.016 152.302 456.817 152.302 456.817C152.302 456.817 152.536 461.325 157.636 460.426C160.487 459.975 163.248 459.074 165.816 457.758C165.816 457.758 168.678 457.432 167.865 450.424C167.053 443.415 164.453 401.041 163.088 395.076C161.723 389.111 154.324 382.186 150.105 377.751C147.529 374.966 145.773 371.523 145.031 367.803L135.205 369.407Z" fill="#0E181D"/>
<path d="M133.201 353.196C133.201 353.196 124.756 343.039 114.407 338.748C104.059 334.457 52.2322 316.098 52.2322 316.098C52.2322 316.098 48.4333 313.657 46.1895 318.326C44.8934 320.904 44.0143 323.671 43.5848 326.525C43.5848 326.525 42.1803 329.04 48.3469 332.469C54.5136 335.897 90.4483 358.504 96.0914 360.872C101.734 363.239 111.674 361.274 117.738 360.432C121.503 359.965 125.323 360.547 128.778 362.115L133.201 353.196Z" fill="#0E181D"/>
<path d="M134.42 364.816C136.574 366.762 139.898 366.594 141.844 364.44C143.79 362.287 143.622 358.963 141.468 357.017C139.314 355.07 135.991 355.239 134.044 357.392C132.098 359.546 132.266 362.87 134.42 364.816Z" fill="#F0F0F0"/>
<path d="M66.6311 321.048L59.0614 339.136L68.4962 344.892L76.4937 324.598L66.6311 321.048Z" fill="#005BBB"/>
<path d="M76.4939 324.595L68.4964 344.89L77.9169 350.624L86.7759 328.315L76.4939 324.595Z" fill="#FDC100"/>
</svg>
