<svg width="210" height="20" viewBox="0 0 210 20" fill="none" xmlns="http://www.w3.org/2000/svg">
<path d="M92.0509 4.02937C91.5569 4.12437 91.4299 3.95637 91.0509 4.02937C90.8409 2.92037 91.0969 3.14337 92.0509 3.02937C93.9629 2.80137 96.1369 2.23637 98.0509 2.02937C98.8049 1.94837 99.0569 2.22137 99.0509 3.02937C99.0369 4.72937 99.0829 6.32937 99.0509 8.02937C99.0319 9.00937 99.1139 9.03637 100.051 9.02937C100.239 9.02937 99.8629 9.02937 100.051 9.02937C101.481 9.00837 101.04 8.59837 101.051 7.02937C101.06 5.77337 101.079 5.28537 101.051 4.02937C101.053 3.7648 101.159 3.51162 101.346 3.32454C101.533 3.13745 101.786 3.03146 102.051 3.02937C103.575 2.93437 105.528 2.13837 107.051 2.02937C107.945 1.96537 108.125 2.05137 108.051 3.02937C107.943 4.45937 107.136 6.59837 107.051 8.02937C106.99 9.05737 107.079 8.97737 108.051 9.02937C108.151 9.03437 108.864 8.99337 109.051 9.02937C108.896 9.49508 108.634 9.9182 108.287 10.2653C107.94 10.6125 107.517 10.8741 107.051 11.0294C106.936 11.0544 107.03 10.8294 107.051 11.0294C107.239 12.8744 107.751 15.2044 108.051 17.0294C108.283 18.4364 108.351 18.0134 107.051 18.0294C104.214 18.0634 101.082 14.8894 101.051 12.0294C101.051 11.7604 101.051 12.2984 101.051 12.0294C101.035 11.0244 101.021 11.0364 100.051 11.0294C99.6739 11.0294 99.4249 11.0644 99.0509 11.0294C98.4509 10.9744 99.0509 10.4494 99.0509 11.0294C99.0509 12.5544 99.0089 14.5064 99.0509 16.0294C99.0719 16.7814 98.6619 16.9764 98.0509 17.0294C96.5079 17.1624 94.5899 17.8594 93.0509 18.0294C92.9158 18.0455 92.7787 18.0306 92.65 17.986C92.5214 17.9415 92.4045 17.8683 92.3083 17.772C92.212 17.6758 92.1388 17.5589 92.0942 17.4302C92.0497 17.3016 92.0349 17.1646 92.0509 17.0294C92.1039 15.3294 92.0139 13.7294 92.0509 12.0294C92.0619 11.5094 92.7449 11.0354 92.0509 11.0294C91.6599 10.7593 91.3211 10.4204 91.0509 10.0294C91.1189 9.47237 91.2099 9.14337 92.0509 9.02937C92.1359 9.01837 92.0509 9.12337 92.0509 9.02937C92.0689 7.57837 92.0509 5.58837 92.0509 4.02937Z" fill="white"/>
<path d="M17.0502 3.03125C16.9382 4.55025 16.1562 5.60325 16.0502 7.03125C16.0382 7.18725 16.0622 6.87425 16.0502 7.03125C15.9502 8.33125 15.8502 8.85625 17.0502 9.03125C17.3831 9.00616 17.7174 9.00616 18.0502 9.03125C17.9282 9.49725 17.1922 9.57125 17.0502 10.0312C17.0182 10.1372 17.1442 11.0222 17.0502 11.0312C16.2502 11.1082 15.9862 11.4842 16.0502 12.0312C16.2692 13.8972 16.8082 15.1682 17.0502 17.0312C17.0782 17.2502 17.0152 17.7402 17.0502 18.0312C16.0716 18.3236 15.0289 18.3236 14.0502 18.0312C11.5562 16.9162 11.0372 14.9672 11.0502 12.0312C11.0552 10.8312 10.1852 11.0312 9.05024 11.0312C7.41924 11.0252 8.13224 10.3022 8.05024 12.0312C7.98824 13.3312 8.06324 14.7312 8.05024 16.0312C8.02527 16.288 7.91184 16.528 7.72944 16.7104C7.54704 16.8928 7.30699 17.0063 7.05024 17.0312C5.42424 17.1842 3.67524 17.8652 2.05024 18.0312C1.52024 18.0852 1.04524 17.4432 1.05024 17.0312C1.07124 15.4612 2.02224 13.6012 2.05024 12.0312C2.05024 11.7842 2.05024 11.2782 2.05024 11.0312C2.05024 10.6022 1.53024 11.0312 1.05024 11.0312C0.679244 11.0312 0.950244 10.3652 1.05024 10.0312C1.19024 9.54525 0.264244 9.11925 1.05024 9.03125C1.16624 9.01825 2.04024 8.26525 2.05024 8.03125C2.09624 6.95525 2.05024 6.10825 2.05024 5.03125C2.05024 4.27925 1.72824 3.90325 1.05024 4.03125C0.260244 4.18125 -0.149756 3.88825 0.0502437 3.03125C0.189244 2.43125 0.473244 3.08525 1.05024 3.03125C3.01024 2.84925 5.09224 2.24325 7.05024 2.03125C7.78624 1.95125 8.05624 2.24525 8.05024 3.03125C8.03524 4.78125 8.08524 6.28125 8.05024 8.03125C8.03324 8.90125 8.21524 9.03125 9.05024 9.03125C9.3832 9.0087 9.71729 9.0087 10.0502 9.03125C10.1845 9.04301 10.3197 9.02516 10.4464 8.97906C10.573 8.93297 10.6881 8.85971 10.7834 8.7644C10.8787 8.66909 10.952 8.55403 10.9981 8.42737C11.0442 8.3007 11.062 8.16553 11.0502 8.03125C11.0422 6.81925 11.0502 5.24325 11.0502 4.03125C11.0098 3.69914 11.0098 3.36336 11.0502 3.03125C11.1022 2.83125 10.8782 3.04925 11.0502 3.03125C12.6952 2.86125 14.4012 2.16125 16.0502 2.03125C16.2362 2.01525 16.7852 3.00825 17.0502 3.03125Z" fill="white"/>
<path d="M127.055 18.0304C125.544 18.0234 124.455 18.7074 123.055 18.0304C121.691 17.3694 120.748 15.5924 120.055 14.0304C119.715 14.5024 119.319 15.6724 119.055 16.0304C118.494 16.8001 117.727 17.3961 116.843 17.7498C115.959 18.1036 114.992 18.2008 114.055 18.0304C112.297 17.7844 111.409 16.1574 111.055 14.0304C110.624 11.4414 110.549 9.09141 112.055 7.03041C113.241 5.50076 114.755 4.25721 116.486 3.39174C118.217 2.52626 120.12 2.06102 122.055 2.03041C123.205 1.98041 123.907 2.12441 125.055 2.03041C125.19 2.01775 125.325 2.03492 125.453 2.0807C125.58 2.12648 125.695 2.19973 125.79 2.29524C125.886 2.39075 125.959 2.50617 126.005 2.63325C126.051 2.76033 126.068 2.89593 126.055 3.03041C125.9 5.78241 126.073 8.27541 126.055 11.0304C126.039 13.4204 125.924 15.9034 127.055 18.0304C127.083 18.0794 127.018 17.8024 127.055 18.0304ZM117.055 15.0304C117.971 14.2207 118.66 13.1869 119.055 12.0304C119.845 9.44081 120.183 6.73469 120.055 4.03041C120.055 3.83041 119.255 4.12341 119.055 4.03041C118.516 3.77641 118.309 3.58141 118.055 4.03041C116.573 6.65841 116.755 10.0304 117.055 13.0304C117.018 13.6966 117.018 14.3643 117.055 15.0304Z" fill="white"/>
<path d="M173.054 18.0293C170.203 18.4213 167.697 18.0633 166.054 15.0293C165.627 14.2413 165.568 14.2553 165.054 15.0293C164.52 15.8919 163.788 16.6144 162.918 17.1363C162.048 17.6582 161.066 17.9644 160.054 18.0293C157.589 17.9533 156.175 15.6963 156.054 13.0293C155.879 9.1773 158.235 6.1623 161.054 4.0293C162.732 2.6324 164.874 1.91837 167.054 2.0293C168.162 2.0083 169.946 2.0753 171.054 2.0293C171.765 1.9993 172.154 2.2683 172.054 3.0293C171.664 5.9293 170.946 8.1083 171.054 11.0293C171.274 13.4677 171.953 15.8426 173.054 18.0293C173.09 18.1053 173.031 17.9433 173.054 18.0293ZM163.054 14.0293V15.0293C163.428 14.3838 163.762 13.7159 164.054 13.0293C165.367 10.4003 165.032 6.9023 165.054 4.0293C165.054 3.6413 165.378 4.1243 165.054 4.0293C164.354 3.8233 164.312 4.5603 164.054 5.0293C162.585 7.42852 161.887 10.2208 162.054 13.0293C162.101 13.5933 162.946 13.4703 163.054 14.0293Z" fill="white"/>
<path d="M201.054 14.0289C200.568 14.6619 200.515 15.4989 200.054 16.0289C199.617 16.5274 199.079 16.927 198.475 17.2007C197.872 17.4744 197.217 17.616 196.554 17.616C195.891 17.616 195.236 17.4744 194.632 17.2007C194.029 16.927 193.491 16.5274 193.054 16.0289C192.378 15.178 192.023 14.1155 192.054 13.0289C191.902 9.20891 194.208 6.15691 197.054 4.02891C198.751 2.66633 200.879 1.95678 203.054 2.02891C204.162 1.99791 205.947 2.10091 207.054 2.02891C207.936 1.97191 208.1 2.10391 208.054 3.02891C207.913 5.84991 207.036 8.20791 207.054 11.0289C207.215 13.1634 207.902 15.2248 209.054 17.0289C209.189 17.2799 209.476 18.0029 209.054 18.0289C207.202 18.1429 204.568 18.4639 203.054 17.0289C202.487 16.4909 202.534 15.6699 202.054 15.0289C201.703 14.7134 201.37 14.3796 201.054 14.0289ZM199.054 14.0289C199.92 13.5976 200.623 12.8954 201.054 12.0289C202.029 9.59591 201.984 6.60691 202.054 4.02891C202.06 3.82291 201.224 4.09891 201.054 4.02891C200.817 3.92891 201.234 3.88291 201.054 4.02891C200.663 4.29883 200.324 4.63768 200.054 5.02891C198.786 7.84994 198.436 10.9983 199.054 14.0289C198.947 13.7509 199.089 14.2569 199.054 14.0289Z" fill="white"/>
<path d="M45.0546 0.0301458C44.9986 1.01215 45.4776 1.14515 46.0546 1.03015C47.7816 0.686146 49.3266 0.369146 51.0546 0.0301458C51.7766 -0.110854 52.1426 0.246146 52.0546 1.03015C51.9876 1.63015 52.1546 2.43715 52.0546 3.03015C51.9948 3.27206 51.87 3.49308 51.6937 3.66931C51.5175 3.84553 51.2966 3.97027 51.0546 4.03015C50.0026 4.20815 49.0916 3.77415 48.0546 4.03015C47.5206 4.16215 47.0776 4.54315 47.0546 4.03015C47.0126 3.10915 46.9286 2.89715 46.0546 3.03015C45.9926 3.04015 46.1156 3.01715 46.0546 3.03015C45.0396 3.25015 45.0916 2.93915 45.0546 4.03015C45.0246 4.90015 45.0806 6.16015 45.0546 7.03015C45.0296 7.85615 45.3316 7.25015 46.0546 7.03015C47.9186 6.46415 49.3236 6.89715 51.0546 8.03015C51.8853 8.53375 52.5297 9.29391 52.8905 10.1959C53.2512 11.0978 53.3089 12.0926 53.0546 13.0301C52.3336 17.0671 47.9376 18.8921 45.0546 17.0301C44.7266 16.8181 44.2666 16.4301 44.0546 17.0301C43.9956 17.1951 44.2626 16.9971 44.0546 17.0301C42.6276 17.2551 41.4846 17.8301 40.0546 18.0301C39.5926 18.0961 39.0546 17.3451 39.0546 17.0301C39.0606 15.7801 39.0276 14.2801 39.0546 13.0301C39.1116 10.4411 38.9776 8.61815 39.0546 6.03015C39.0716 5.48015 39.6686 4.82015 39.0546 5.03015C38.7356 5.13915 38.0546 5.38515 38.0546 5.03015C38.0156 4.69795 38.0156 4.36234 38.0546 4.03015C38.3074 3.62498 38.6495 3.28294 39.0546 3.03015C39.6546 2.95215 39.0816 2.67015 39.0546 2.03015C39.0466 1.85415 39.8996 2.06815 40.0546 2.03015C41.8406 1.59315 43.1416 0.463146 45.0546 0.0301458ZM45.0546 12.0301C44.9986 12.9871 45.1046 14.0731 45.0546 15.0301C45.0296 15.5231 44.5466 15.3001 45.0546 15.0301C45.6218 14.7494 46.1052 14.3245 46.4562 13.7979C46.8073 13.2713 47.0137 12.6617 47.0546 12.0301C47.2326 10.4481 47.2546 9.93715 46.0546 9.03015C45.5926 8.68015 45.0736 8.42115 45.0546 9.03015C45.0216 10.0311 45.0546 11.0271 45.0546 12.0301Z" fill="white"/>
<path d="M138.057 4.02897C137.934 2.77497 138.02 3.15397 139.057 3.02897C140.929 2.80397 142.183 2.23397 144.057 2.02897C144.85 1.94197 145.072 2.15497 145.057 3.02897C145.038 4.10697 145.085 4.95097 145.057 6.02897C145.047 6.40197 145.057 6.65597 145.057 7.02897C145.404 6.60997 145.726 6.46197 146.057 6.02897C147.144 4.47043 148.498 3.11628 150.057 2.02897C150.804 1.56497 151.579 2.23897 152.057 3.02897C152.114 3.12297 152.001 2.93397 152.057 3.02897C152.83 4.32897 153.157 4.07597 152.057 5.02897C151.227 5.74697 149.884 6.30697 149.057 7.02897C148.9 7.16597 149.273 7.87897 149.057 8.02897C148.824 7.65397 148.345 7.49197 148.057 7.02897C147.288 7.78897 146.775 8.31997 146.057 9.02897C146.271 9.05297 145.857 9.06597 146.057 9.02897C147.002 8.85497 148.13 8.28397 149.057 8.02897C149.845 7.81197 149.757 8.24697 150.057 9.02897C150.516 10.208 151.565 11.865 152.057 13.029C152.422 14.2 153.116 15.2413 154.057 16.029C154.213 16.165 154.838 16.829 155.057 17.029C154.181 17.6591 153.135 18.0079 152.057 18.029C150.866 18.2576 149.633 18.0876 148.548 17.5454C147.464 17.0031 146.588 16.1188 146.057 15.029C145.748 14.368 146.357 12.698 146.057 12.029C145.981 11.856 145.296 12.167 145.057 12.029C145.035 12.257 145.057 12.801 145.057 13.029C145.036 14.243 145.057 14.815 145.057 16.029C145.057 16.452 145.445 16.989 145.057 17.029C143.37 17.202 140.742 17.839 139.057 18.029C138.357 18.108 139.049 17.511 139.057 17.029C139.094 14.715 139.025 12.344 139.057 10.029C139.079 8.45597 139.057 6.60297 139.057 5.02897C139.057 4.06497 138.921 3.78697 138.057 4.02897C137.917 4.06797 138.238 3.99997 138.057 4.02897Z" fill="white"/>
<path d="M177.055 6.02498C176.639 6.18998 176.526 5.83898 176.055 6.02498C176.028 5.69219 176.028 5.35776 176.055 5.02498C176.075 4.86398 175.896 4.11798 176.055 4.02498C176.564 3.72498 177.081 3.84798 177.055 3.02498C177.05 2.86498 177.855 3.07498 178.055 3.02498C179.643 2.63098 181.455 1.37598 183.055 1.02498C183.326 0.964978 183.047 1.51998 183.055 2.02498C183.064 2.54998 183.702 2.07298 184.055 2.02498C185.053 1.94242 186.056 1.94242 187.055 2.02498C187.826 2.04989 188.583 2.24151 189.274 2.58675C189.964 2.93199 190.572 3.42267 191.055 4.02498C192.219 5.55098 191.305 7.40698 190.055 9.02498C188.224 11.395 185.894 13.079 183.055 13.025C182.255 13.01 182.099 12.169 182.055 13.025C181.988 14.317 182.079 15.731 182.055 17.025C182.046 17.525 182.589 17.965 182.055 18.025C180.623 18.185 178.482 18.812 177.055 19.025C176.634 19.088 177.05 18.386 177.055 18.025C177.084 16.038 177.025 14.012 177.055 12.025C177.085 10.016 177.029 8.03398 177.055 6.02498C177.056 5.89898 177.091 6.28998 177.055 6.02498ZM183.055 10.025C183.055 10.382 183.055 10.668 183.055 11.025C183.049 11.497 182.713 11.209 183.055 11.025C183.219 10.936 183.919 11.16 184.055 11.025C185.366 9.72498 185.126 7.88298 185.055 6.02498C185.033 5.43198 185.334 5.54698 185.055 5.02498C184.785 4.52498 184.62 3.90298 184.055 4.02498C183.801 4.05728 183.565 4.17301 183.384 4.35402C183.203 4.53502 183.087 4.77105 183.055 5.02498C182.974 6.67698 183.142 8.38098 183.055 10.025Z" fill="white"/>
<path d="M56.0536 4.02907C56.0706 2.78007 56.0406 3.10807 57.0536 3.02907C60.6446 2.74907 64.4636 2.31907 68.0536 2.02907C68.4296 1.99907 68.6766 2.04507 69.0536 2.02907C69.9376 1.99007 70.2376 1.09907 70.0536 2.02907C69.9316 2.64307 70.2596 3.44507 70.0536 4.02907C69.8091 4.44076 69.4653 4.78457 69.0536 5.02907C67.9806 5.21207 67.1316 4.87007 66.0536 5.02907C65.5086 5.11007 65.0036 5.65307 65.0536 5.02907C65.0846 4.64307 65.8116 4.02907 65.0536 4.02907C63.9326 4.02907 63.1016 4.22307 63.0536 5.02907C63.0036 5.85907 63.1276 6.20207 63.0536 7.02907C63.059 7.29261 63.166 7.54386 63.3524 7.73024C63.5388 7.91663 63.7901 8.0237 64.0536 8.02907C64.8916 8.01807 65.2156 8.01607 66.0536 8.02907C66.7336 8.04007 67.2366 8.34207 67.0536 9.02907C66.8006 9.97507 65.9876 10.0221 65.0536 10.0291C64.4046 10.0291 64.7026 10.0441 64.0536 10.0291C63.6536 10.0201 63.0646 9.60407 63.0536 10.0291C63.0136 11.6291 63.1136 13.4351 63.0536 15.0291C63.0427 15.1632 63.0611 15.298 63.1075 15.4243C63.1539 15.5505 63.2273 15.6652 63.3224 15.7603C63.4175 15.8554 63.5322 15.9287 63.6584 15.9751C63.7847 16.0215 63.9195 16.0399 64.0536 16.0291C64.7176 15.9361 65.3856 15.0691 66.0536 15.0291C66.5976 14.9971 66.1036 15.6081 66.0536 15.0291C65.9776 14.1481 66.2226 14.0491 67.0536 14.0291C68.1006 14.0041 69.0066 14.0541 70.0536 14.0291C70.4756 14.0191 70.9716 13.5541 71.0536 14.0291C71.1536 14.6011 70.9086 15.4661 71.0536 16.0291C71.1816 16.5291 71.5876 17.0031 71.0536 17.0291C68.2716 17.1631 64.8346 16.8731 62.0536 17.0291C60.2536 17.1291 58.8536 17.9161 57.0536 18.0291C56.9076 18.0381 57.1996 18.0291 57.0536 18.0291C56.7446 18.0291 56.0246 17.5651 56.0536 17.0291C56.0557 16.7645 56.1617 16.5114 56.3488 16.3243C56.5359 16.1372 56.789 16.0312 57.0536 16.0291C58.1436 15.9091 58.0746 16.2141 58.0536 15.0291C58.0276 13.5911 58.0666 11.4671 58.0536 10.0291C58.0536 9.48907 57.5766 9.98807 57.0536 10.0291C56.9212 10.0331 56.7893 10.01 56.6662 9.96114C56.5431 9.91231 56.4313 9.83881 56.3376 9.74514C56.2439 9.65146 56.1704 9.5396 56.1215 9.41646C56.0727 9.29332 56.0496 9.16148 56.0536 9.02907C56.0866 8.16807 56.4536 8.04207 57.0536 8.02907C57.3166 8.022 57.5668 7.91438 57.7529 7.72835C57.9389 7.54233 58.0465 7.29206 58.0536 7.02907C58.0296 6.31007 58.0346 5.74807 58.0536 5.02907C58.0686 4.45807 57.5296 3.91907 57.0536 4.02907C56.7786 4.09307 56.3426 3.99707 56.0536 4.02907Z" fill="white"/>
<path d="M19.0561 4.0303C19.0467 3.76514 19.0919 3.50088 19.1891 3.254C19.2863 3.00711 19.4334 2.78286 19.621 2.59524C19.8086 2.40763 20.0328 2.26068 20.2797 2.16348C20.5266 2.06628 20.7909 2.02094 21.0561 2.0303C24.8131 1.7383 28.3011 2.3463 32.0561 2.0303C33.5451 1.9053 33.2711 1.4683 33.0561 3.0303C32.8411 4.5923 32.4121 5.0673 31.0561 5.0303C30.3908 4.97055 29.7214 4.97055 29.0561 5.0303C28.5691 5.1043 28.0211 5.5303 28.0561 5.0303C28.0871 4.5963 28.8171 4.0403 28.0561 4.0303C26.9351 4.0163 26.0941 4.2043 26.0561 5.0303C26.0171 5.8833 26.1061 6.1783 26.0561 7.0303C26.0965 7.28092 26.2149 7.51241 26.3945 7.69192C26.574 7.87143 26.8055 7.98984 27.0561 8.0303C27.9351 8.0213 28.1771 8.0073 29.0561 8.0303C29.6801 8.0473 30.2561 8.4033 30.0561 9.0303C29.7321 10.0623 29.1021 10.0303 28.0561 10.0303C27.4281 10.0303 26.6841 10.0403 26.0561 10.0303C25.6941 10.0243 26.0691 9.6383 26.0561 10.0303C26.0011 11.6693 26.1031 13.3913 26.0561 15.0303C26.0431 15.4983 25.5841 16.0933 26.0561 16.0303C26.7831 15.9303 28.3261 15.0863 29.0561 15.0303C29.5851 14.9893 29.1251 15.5623 29.0561 15.0303C28.9461 14.1873 29.2911 14.0413 30.0561 14.0303C31.1241 14.0153 31.9891 14.0683 33.0561 14.0303C33.4931 14.0143 33.9561 13.6023 34.0561 14.0303C34.2011 14.6393 33.9061 15.4233 34.0561 16.0303C34.1971 16.6003 34.4481 17.0113 34.0561 17.0303C32.6341 17.0983 30.4771 16.9473 29.0561 17.0303C25.9221 17.2133 23.1901 17.8373 20.0561 18.0303C19.9311 18.0383 20.1811 18.0303 20.0561 18.0303C19.7958 18.0153 19.55 17.9051 19.3656 17.7207C19.1813 17.5364 19.0711 17.2906 19.0561 17.0303C19.051 16.8976 19.0734 16.7653 19.1219 16.6417C19.1703 16.5181 19.2438 16.4058 19.3377 16.3119C19.4316 16.218 19.5438 16.1446 19.6674 16.0961C19.791 16.0476 19.9234 16.0252 20.0561 16.0303C21.0491 16.0003 21.0851 16.0813 21.0561 15.0303C21.0131 13.4813 20.0961 11.5793 20.0561 10.0303C20.0441 9.5573 20.4711 9.9913 20.0561 10.0303C19.9229 10.0375 19.7896 10.0166 19.665 9.9689C19.5404 9.9212 19.4273 9.84778 19.3329 9.75345C19.2386 9.65911 19.1652 9.54595 19.1175 9.42135C19.0698 9.29676 19.0489 9.16352 19.0561 9.0303C19.1121 8.5303 19.2281 7.9753 20.0561 8.0303C20.5611 8.0633 20.0671 7.5253 20.0561 7.0303C20.0401 6.3113 20.0381 5.7493 20.0561 5.0303C20.0691 4.5053 20.5841 3.8743 20.0561 4.0303C19.7232 4.05436 19.389 4.05436 19.0561 4.0303Z" fill="white"/>
<path d="M82.0594 5.03035C82.2424 4.10535 82.8714 3.97935 83.0594 3.03035C82.6729 3.03895 82.2931 3.13308 81.9473 3.30599C81.6014 3.47889 81.2982 3.72628 81.0594 4.03035C79.6884 5.66035 79.6824 7.03035 80.0594 9.03035C80.2587 10.5502 80.9631 11.959 82.0594 13.0304C83.6884 14.4414 86.5254 14.6804 88.0594 13.0304C88.3104 12.7604 87.7844 12.2694 88.0594 12.0304C88.1594 11.9444 88.9134 12.0544 89.0594 12.0304C89.0594 12.1724 89.1014 11.9044 89.0594 12.0304C88.4054 13.9774 86.7174 15.1144 85.0594 16.0304C81.9024 17.7754 78.5594 17.7304 76.0594 15.0304C73.0834 11.8064 73.3594 4.28735 78.0594 2.03035C80.2034 1.00035 81.7774 1.13035 84.0594 1.03035C84.8324 0.996352 86.2854 1.04235 87.0594 1.03035C87.5504 1.02335 87.1944 1.48935 87.0594 2.03035C86.9184 2.59335 87.2184 3.47335 87.0594 4.03035C87.0154 4.18435 87.1874 3.98535 87.0594 4.03035C85.7104 4.50335 84.4164 4.58235 83.0594 5.03035C82.7265 5.05218 82.3924 5.05218 82.0594 5.03035Z" fill="white"/>
</svg>
