<svg width="277" height="25" viewBox="0 0 277 25" fill="none" xmlns="http://www.w3.org/2000/svg">
<path d="M121.518 5.24952C120.866 5.37329 120.698 5.15441 120.198 5.24952C119.921 3.80465 120.259 4.09519 121.518 3.94666C124.042 3.64961 126.912 2.91349 129.439 2.6438C130.434 2.53827 130.767 2.89395 130.759 3.94666C130.74 6.16152 130.801 8.2461 130.759 10.461C130.734 11.7378 130.842 11.7729 132.079 11.7638C132.327 11.7638 131.831 11.7638 132.079 11.7638C133.967 11.7365 133.385 11.2023 133.399 9.1581C133.411 7.52171 133.436 6.88592 133.399 5.24952C133.402 4.90482 133.542 4.57497 133.789 4.33122C134.036 4.08748 134.37 3.94939 134.719 3.94666C136.731 3.82289 139.309 2.78581 141.32 2.6438C142.5 2.56042 142.738 2.67246 142.64 3.94666C142.497 5.80975 141.432 8.59657 141.32 10.461C141.239 11.8003 141.357 11.6961 142.64 11.7638C142.772 11.7703 143.713 11.7169 143.96 11.7638C143.755 12.3706 143.41 12.9219 142.952 13.3741C142.493 13.8264 141.935 14.1672 141.32 14.3695C141.168 14.4021 141.292 14.109 141.32 14.3695C141.568 16.7733 142.244 19.809 142.64 22.1867C142.946 24.0198 143.036 23.4687 141.32 23.4896C137.575 23.5339 133.44 19.3986 133.399 15.6724C133.399 15.3219 133.399 16.0229 133.399 15.6724C133.378 14.363 133.36 14.3787 132.079 14.3695C131.581 14.3695 131.253 14.4151 130.759 14.3695C129.967 14.2979 130.759 13.6139 130.759 14.3695C130.759 16.3564 130.703 18.8996 130.759 20.8839C130.787 21.8636 130.245 22.1177 129.439 22.1867C127.402 22.36 124.87 23.2681 122.838 23.4896C122.66 23.5105 122.479 23.4912 122.309 23.4331C122.139 23.3751 121.985 23.2797 121.858 23.1543C121.731 23.0289 121.634 22.8766 121.575 22.709C121.516 22.5414 121.497 22.3629 121.518 22.1867C121.588 19.9719 121.469 17.8873 121.518 15.6724C121.533 14.9949 122.434 14.3774 121.518 14.3695C121.002 14.0176 120.554 13.5762 120.198 13.0667C120.288 12.341 120.408 11.9124 121.518 11.7638C121.63 11.7495 121.518 11.8863 121.518 11.7638C121.542 9.87338 121.518 7.28068 121.518 5.24952Z" fill="#111112"/>
<path d="M22.5085 3.94922C22.3606 5.92827 21.3283 7.30018 21.1884 9.16067C21.1725 9.36391 21.2042 8.95612 21.1884 9.16067C21.0563 10.8544 20.9243 11.5384 22.5085 11.7664C22.9479 11.7337 23.3892 11.7337 23.8286 11.7664C23.6675 12.3735 22.6959 12.4699 22.5085 13.0693C22.4662 13.2074 22.6326 14.3604 22.5085 14.3721C21.4524 14.4724 21.1039 14.9623 21.1884 15.675C21.4775 18.1061 22.189 19.762 22.5085 22.1893C22.5454 22.4746 22.4623 23.113 22.5085 23.4921C21.2166 23.873 19.84 23.873 18.5481 23.4921C15.2557 22.0394 14.5706 19.5002 14.5877 15.675C14.5943 14.1115 13.4458 14.3721 11.9475 14.3721C9.79434 14.3643 10.7356 13.4223 10.6273 15.675C10.5455 17.3687 10.6445 19.1927 10.6273 20.8864C10.5944 21.2209 10.4446 21.5337 10.2038 21.7713C9.96305 22.009 9.64615 22.1567 9.30721 22.1893C7.16069 22.3886 4.85179 23.2759 2.70658 23.4921C2.00691 23.5625 1.37985 22.7261 1.38645 22.1893C1.41418 20.1438 2.66962 17.7205 2.70658 15.675C2.70658 15.3532 2.70658 14.6939 2.70658 14.3721C2.70658 13.8132 2.02012 14.3721 1.38645 14.3721C0.896688 14.3721 1.25444 13.5044 1.38645 13.0693C1.57127 12.4361 0.348835 11.881 1.38645 11.7664C1.53959 11.7495 2.69338 10.7684 2.70658 10.4635C2.76731 9.06165 2.70658 7.95813 2.70658 6.55494C2.70658 5.57519 2.2815 5.08532 1.38645 5.25208C0.343555 5.44751 -0.197697 5.06577 0.0663281 3.94922C0.249826 3.1675 0.624742 4.01958 1.38645 3.94922C3.9739 3.7121 6.72241 2.92257 9.30721 2.64636C10.2788 2.54213 10.6353 2.92517 10.6273 3.94922C10.6075 6.22923 10.6735 8.18352 10.6273 10.4635C10.6049 11.597 10.8452 11.7664 11.9475 11.7664C12.387 11.737 12.8281 11.737 13.2676 11.7664C13.4449 11.7817 13.6233 11.7585 13.7905 11.6984C13.9577 11.6383 14.1096 11.5429 14.2354 11.4187C14.3613 11.2945 14.4581 11.1446 14.5189 10.9796C14.5798 10.8146 14.6032 10.6385 14.5877 10.4635C14.5772 8.88446 14.5877 6.83115 14.5877 5.25208C14.5344 4.81939 14.5344 4.38191 14.5877 3.94922C14.6564 3.68865 14.3607 3.97267 14.5877 3.94922C16.7593 3.72773 19.0115 2.81573 21.1884 2.64636C21.4339 2.62551 22.1586 3.91926 22.5085 3.94922Z" fill="#111112"/>
<path d="M167.729 23.4907C165.734 23.4816 164.296 24.3728 162.448 23.4907C160.647 22.6296 159.403 20.3144 158.488 18.2793C158.039 18.8943 157.516 20.4186 157.168 20.885C156.427 21.8878 155.415 22.6643 154.247 23.1252C153.08 23.5861 151.804 23.7128 150.567 23.4907C148.246 23.1702 147.074 21.0505 146.607 18.2793C146.038 14.9062 145.939 11.8445 147.927 9.15928C149.492 7.16636 151.491 5.54618 153.776 4.41859C156.061 3.291 158.574 2.68485 161.128 2.64497C162.646 2.57983 163.573 2.76744 165.088 2.64497C165.266 2.62847 165.445 2.65085 165.613 2.71049C165.781 2.77014 165.933 2.86557 166.059 2.99001C166.185 3.11444 166.282 3.26483 166.342 3.43039C166.403 3.59596 166.425 3.77263 166.409 3.94783C166.204 7.5333 166.432 10.7813 166.409 14.3707C166.387 17.4846 166.236 20.7196 167.729 23.4907C167.766 23.5546 167.68 23.1937 167.729 23.4907ZM154.527 19.5822C155.736 18.5272 156.646 17.1803 157.168 15.6736C158.21 12.2997 158.657 8.77399 158.488 5.25069C158.488 4.99012 157.432 5.37186 157.168 5.25069C156.456 4.91976 156.183 4.66571 155.848 5.25069C153.891 8.67461 154.131 13.0679 154.527 16.9764C154.478 17.8443 154.478 18.7143 154.527 19.5822Z" fill="#111112"/>
<path d="M228.454 23.4895C224.691 24.0002 221.382 23.5338 219.213 19.5809C218.65 18.5542 218.572 18.5725 217.893 19.5809C217.189 20.7048 216.222 21.6461 215.074 22.326C213.925 23.006 212.629 23.4049 211.293 23.4895C208.038 23.3905 206.172 20.4499 206.012 16.9752C205.781 11.9565 208.891 8.02842 212.613 5.24941C214.827 3.42945 217.655 2.49917 220.533 2.64369C221.996 2.61633 224.351 2.70362 225.814 2.64369C226.753 2.6046 227.266 2.95507 227.134 3.94655C226.619 7.72485 225.671 10.5638 225.814 14.3694C226.105 17.5464 227 20.6406 228.454 23.4895C228.502 23.5885 228.424 23.3774 228.454 23.4895ZM215.253 18.278V19.5809C215.747 18.7399 216.188 17.8696 216.573 16.9752C218.306 13.5499 217.864 8.99253 217.893 5.24941C217.893 4.7439 218.321 5.37318 217.893 5.24941C216.969 4.98102 216.914 5.94123 216.573 6.55227C214.633 9.67813 213.712 13.3161 213.933 16.9752C213.995 17.71 215.11 17.5497 215.253 18.278Z" fill="#111112"/>
<path d="M265.416 18.278C264.774 19.1027 264.704 20.1932 264.096 20.8837C263.519 21.5333 262.809 22.0538 262.012 22.4104C261.215 22.767 260.35 22.9514 259.475 22.9514C258.6 22.9514 257.736 22.767 256.939 22.4104C256.142 22.0538 255.431 21.5333 254.855 20.8837C253.962 19.7751 253.494 18.3908 253.535 16.9752C253.334 11.9982 256.378 8.02189 260.135 5.2494C262.375 3.47414 265.185 2.54969 268.056 2.64368C269.519 2.60329 271.875 2.73748 273.337 2.64368C274.501 2.56941 274.718 2.74139 274.657 3.94654C274.471 7.62191 273.313 10.6941 273.337 14.3694C273.549 17.1504 274.456 19.8361 275.977 22.1866C276.155 22.5136 276.534 23.4556 275.977 23.4895C273.532 23.638 270.055 24.0562 268.056 22.1866C267.308 21.4857 267.37 20.416 266.736 19.5809C266.273 19.1698 265.832 18.7349 265.416 18.278ZM262.776 18.278C263.92 17.716 264.846 16.8012 265.416 15.6723C266.703 12.5024 266.644 8.60818 266.736 5.2494C266.744 4.98101 265.64 5.3406 265.416 5.2494C265.103 5.11911 265.654 5.05918 265.416 5.2494C264.899 5.60106 264.452 6.04254 264.096 6.55226C262.421 10.2277 261.96 14.3295 262.776 18.278C262.634 17.9158 262.822 18.5751 262.776 18.278Z" fill="#111112"/>
<path d="M59.4768 0.0392758C59.4028 1.31869 60.0352 1.49197 60.7969 1.34214C63.0767 0.893953 65.1163 0.480946 67.3975 0.0392758C68.3506 -0.144428 68.8338 0.320694 68.7176 1.34214C68.6292 2.12385 68.8497 3.17526 68.7176 3.94786C68.6386 4.26305 68.4738 4.551 68.2412 4.7806C68.0086 5.01019 67.7169 5.17271 67.3975 5.25072C66.0087 5.48263 64.8061 4.91719 63.4371 5.25072C62.7322 5.4227 62.1474 5.91909 62.117 5.25072C62.0616 4.05079 61.9507 3.77458 60.7969 3.94786C60.715 3.96089 60.8774 3.93092 60.7969 3.94786C59.457 4.23449 59.5256 3.8293 59.4768 5.25072C59.4372 6.38421 59.5111 8.02582 59.4768 9.1593C59.4438 10.2355 59.8424 9.44593 60.7969 9.1593C63.2576 8.42188 65.1124 8.98602 67.3975 10.4622C68.4941 11.1183 69.3448 12.1087 69.821 13.2838C70.2973 14.4589 70.3734 15.755 70.0378 16.9765C69.086 22.2361 63.2827 24.6138 59.4768 22.1879C59.0438 21.9117 58.4365 21.4062 58.1566 22.1879C58.0787 22.4029 58.4312 22.1449 58.1566 22.1879C56.2728 22.4811 54.7639 23.2302 52.8761 23.4908C52.2662 23.5768 51.556 22.5983 51.556 22.1879C51.5639 20.5593 51.5204 18.605 51.556 16.9765C51.6312 13.6034 51.4543 11.2282 51.556 7.85644C51.5784 7.13987 52.3666 6.27998 51.556 6.55358C51.1349 6.69559 50.2359 7.0161 50.2359 6.55358C50.1844 6.12078 50.1844 5.68352 50.2359 5.25072C50.5696 4.72284 51.0211 4.27721 51.556 3.94786C52.3481 3.84624 51.5916 3.47883 51.556 2.645C51.5454 2.41569 52.6715 2.69451 52.8761 2.645C55.2339 2.07565 56.9514 0.603415 59.4768 0.0392758ZM59.4768 15.6736C59.4028 16.9204 59.5428 18.3354 59.4768 19.5822C59.4438 20.2245 58.8061 19.934 59.4768 19.5822C60.2255 19.2165 60.8636 18.6628 61.3271 17.9768C61.7905 17.2907 62.0629 16.4964 62.117 15.6736C62.352 13.6125 62.381 12.9467 60.7969 11.765C60.187 11.309 59.5018 10.9716 59.4768 11.765C59.4332 13.0692 59.4768 14.3668 59.4768 15.6736Z" fill="#111112"/>
<path d="M182.252 5.24949C182.09 3.6157 182.203 4.10949 183.572 3.94663C186.043 3.65349 187.699 2.91085 190.173 2.64377C191.22 2.53042 191.513 2.80793 191.493 3.94663C191.468 5.35111 191.53 6.45073 191.493 7.85521C191.48 8.34118 191.493 8.67211 191.493 9.15807C191.951 8.61217 192.376 8.41935 192.813 7.85521C194.248 5.82465 196.036 4.06038 198.094 2.64377C199.08 2.03924 200.103 2.91737 200.734 3.94663C200.809 4.0691 200.66 3.82286 200.734 3.94663C201.754 5.64035 202.186 5.31072 200.734 6.55235C199.638 7.48781 197.865 8.21741 196.773 9.15807C196.566 9.33657 197.059 10.2655 196.773 10.4609C196.466 9.97236 195.834 9.7613 195.453 9.15807C194.438 10.1482 193.761 10.8401 192.813 11.7638C193.096 11.7951 192.549 11.812 192.813 11.7638C194.061 11.5371 195.55 10.7932 196.773 10.4609C197.814 10.1782 197.698 10.745 198.094 11.7638C198.7 13.2999 200.084 15.4587 200.734 16.9752C201.216 18.5009 202.133 19.8576 203.374 20.8838C203.58 21.061 204.405 21.9261 204.694 22.1867C203.539 23.0076 202.157 23.462 200.734 23.4895C199.162 23.7874 197.534 23.566 196.103 22.8595C194.671 22.153 193.515 21.0008 192.813 19.581C192.405 18.7198 193.209 16.544 192.813 15.6724C192.713 15.447 191.808 15.8522 191.493 15.6724C191.464 15.9694 191.493 16.6782 191.493 16.9752C191.465 18.5569 191.493 19.3022 191.493 20.8838C191.493 21.4349 192.005 22.1346 191.493 22.1867C189.266 22.4121 185.797 23.242 183.572 23.4895C182.648 23.5925 183.562 22.8147 183.572 22.1867C183.621 19.1719 183.53 16.0828 183.572 13.0667C183.601 11.0173 183.572 8.60305 183.572 6.55235C183.572 5.29639 183.393 4.9342 182.252 5.24949C182.067 5.3003 182.491 5.21171 182.252 5.24949Z" fill="#111112"/>
<path d="M233.734 7.85C233.185 8.06497 233.036 7.60766 232.414 7.85C232.378 7.41642 232.378 6.98071 232.414 6.54713C232.44 6.33737 232.204 5.36544 232.414 5.24427C233.086 4.85341 233.768 5.01367 233.734 3.94141C233.727 3.73295 234.79 4.00655 235.054 3.94141C237.15 3.42808 239.543 1.79299 241.655 1.33569C242.013 1.25752 241.644 1.98061 241.655 2.63855C241.667 3.32255 242.509 2.70109 242.975 2.63855C244.293 2.53099 245.617 2.53099 246.935 2.63855C247.954 2.67101 248.953 2.92066 249.865 3.37046C250.776 3.82025 251.578 4.45954 252.216 5.24427C253.752 7.23244 252.546 9.65055 250.896 11.7586C248.478 14.8464 245.403 17.0404 241.655 16.97C240.599 16.9505 240.393 15.8548 240.335 16.97C240.246 18.6533 240.366 20.4956 240.335 22.1815C240.323 22.8329 241.04 23.4062 240.335 23.4843C238.444 23.6928 235.618 24.5097 233.734 24.7872C233.178 24.8693 233.727 23.9547 233.734 23.4843C233.772 20.8955 233.694 18.2559 233.734 15.6672C233.774 13.0497 233.7 10.4674 233.734 7.85C233.735 7.68584 233.782 8.19525 233.734 7.85ZM241.655 13.0614C241.655 13.5266 241.655 13.8992 241.655 14.3643C241.647 14.9793 241.203 14.604 241.655 14.3643C241.871 14.2483 242.795 14.5402 242.975 14.3643C244.706 12.6706 244.389 10.2707 244.295 7.85C244.266 7.0774 244.663 7.22723 244.295 6.54713C243.939 5.8957 243.721 5.08532 242.975 5.24427C242.64 5.28636 242.328 5.43714 242.089 5.67297C241.85 5.90879 241.697 6.2163 241.655 6.54713C241.548 8.69946 241.77 10.9195 241.655 13.0614Z" fill="#111112"/>
<path d="M73.9972 5.24946C74.0197 3.62219 73.9801 4.04952 75.3173 3.9466C80.0579 3.5818 85.0995 3.02157 89.8387 2.64374C90.3351 2.60465 90.6612 2.66458 91.1589 2.64374C92.3259 2.59292 92.7219 1.43208 92.479 2.64374C92.3179 3.44369 92.7509 4.48859 92.479 5.24946C92.1562 5.78583 91.7023 6.23377 91.1589 6.55232C89.7424 6.79074 88.6216 6.34516 87.1985 6.55232C86.479 6.65785 85.8124 7.36531 85.8784 6.55232C85.9193 6.04942 86.879 5.24946 85.8784 5.24946C84.3985 5.24946 83.3015 5.50221 83.2381 6.55232C83.1721 7.63369 83.3358 8.08058 83.2381 9.15804C83.2452 9.50139 83.3865 9.82874 83.6326 10.0716C83.8786 10.3144 84.2103 10.4539 84.5582 10.4609C85.6645 10.4466 86.0922 10.444 87.1985 10.4609C88.0962 10.4752 88.7602 10.8687 88.5186 11.7638C88.1846 12.9963 87.1114 13.0575 85.8784 13.0666C85.0216 13.0666 85.415 13.0862 84.5582 13.0666C84.0302 13.0549 83.2526 12.5129 83.2381 13.0666C83.1853 15.1512 83.3173 17.5042 83.2381 19.5809C83.2237 19.7556 83.2481 19.9313 83.3093 20.0958C83.3706 20.2603 83.4674 20.4097 83.593 20.5336C83.7185 20.6575 83.8699 20.753 84.0366 20.8135C84.2033 20.874 84.3812 20.898 84.5582 20.8838C85.4348 20.7626 86.3166 19.633 87.1985 19.5809C87.9166 19.5392 87.2645 20.3353 87.1985 19.5809C87.0982 18.4331 87.4216 18.3041 88.5186 18.2781C89.9008 18.2455 91.0968 18.3106 92.479 18.2781C93.0361 18.265 93.6909 17.6592 93.7991 18.2781C93.9311 19.0233 93.6077 20.1503 93.7991 20.8838C93.9681 21.5352 94.5041 22.1528 93.7991 22.1867C90.1265 22.3612 85.5892 21.9834 81.918 22.1867C79.5417 22.3169 77.6936 23.3423 75.3173 23.4895C75.1246 23.5012 75.5101 23.4895 75.3173 23.4895C74.9094 23.4895 73.9589 22.885 73.9972 22.1867C74 21.842 74.14 21.5122 74.387 21.2684C74.6339 21.0247 74.9681 20.8865 75.3173 20.8838C76.7563 20.7274 76.6652 21.1248 76.6375 19.5809C76.6031 17.7074 76.6546 14.9401 76.6375 13.0666C76.6375 12.3631 76.0078 13.0132 75.3173 13.0666C75.1425 13.0719 74.9685 13.0417 74.8059 12.9781C74.6434 12.9145 74.4958 12.8187 74.3721 12.6967C74.2485 12.5747 74.1514 12.4289 74.0869 12.2685C74.0224 12.108 73.9919 11.9363 73.9972 11.7638C74.0408 10.642 74.5253 10.4778 75.3173 10.4609C75.6645 10.4517 75.9949 10.3115 76.2405 10.0691C76.4861 9.82674 76.6281 9.50068 76.6375 9.15804C76.6058 8.22129 76.6124 7.48908 76.6375 6.55232C76.6573 5.80839 75.9457 5.10614 75.3173 5.24946C74.9543 5.33284 74.3787 5.20777 73.9972 5.24946Z" fill="#111112"/>
<path d="M25.1561 5.25087C25.1438 4.9054 25.2035 4.56111 25.3318 4.23945C25.4601 3.91779 25.6543 3.62563 25.9019 3.38119C26.1496 3.13675 26.4456 2.9453 26.7715 2.81866C27.0974 2.69203 27.4463 2.63295 27.7964 2.64515C32.7561 2.26471 37.3607 3.05685 42.3178 2.64515C44.2834 2.48229 43.9217 1.91294 43.6379 3.94801C43.3541 5.98308 42.7877 6.60194 40.9977 6.55373C40.1193 6.47588 39.2357 6.47588 38.3574 6.55373C37.7145 6.65015 36.9911 7.20516 37.0373 6.55373C37.0782 5.98829 38.0419 5.2639 37.0373 5.25087C35.5574 5.23263 34.4472 5.47757 34.397 6.55373C34.3455 7.66507 34.463 8.04942 34.397 9.15946C34.4504 9.48598 34.6067 9.78758 34.8437 10.0215C35.0807 10.2553 35.3863 10.4096 35.7171 10.4623C36.8775 10.4506 37.197 10.4324 38.3574 10.4623C39.1812 10.4845 39.9416 10.9483 39.6775 11.7652C39.2498 13.1097 38.4181 13.068 37.0373 13.068C36.2082 13.068 35.2261 13.0811 34.397 13.068C33.9191 13.0602 34.4142 12.5573 34.397 13.068C34.3244 15.2034 34.4591 17.447 34.397 19.5823C34.3799 20.1921 33.7739 20.9673 34.397 20.8852C35.3568 20.7549 37.3937 19.6553 38.3574 19.5823C39.0557 19.5289 38.4485 20.2755 38.3574 19.5823C38.2122 18.484 38.6676 18.2938 39.6775 18.2795C41.0874 18.2599 42.2293 18.329 43.6379 18.2795C44.2148 18.2586 44.826 17.7219 44.958 18.2795C45.1495 19.0729 44.76 20.0944 44.958 20.8852C45.1442 21.6278 45.4755 22.1633 44.958 22.1881C43.0808 22.2767 40.2333 22.0799 38.3574 22.1881C34.2201 22.4265 30.6135 23.2395 26.4763 23.4909C26.3112 23.5014 26.6413 23.4909 26.4763 23.4909C26.1326 23.4714 25.8082 23.3278 25.5648 23.0876C25.3214 22.8474 25.176 22.5272 25.1561 22.1881C25.1495 22.0152 25.179 21.8428 25.243 21.6818C25.307 21.5207 25.404 21.3744 25.5279 21.2521C25.6518 21.1298 25.8 21.0341 25.9632 20.9709C26.1263 20.9078 26.3011 20.8786 26.4763 20.8852C27.7871 20.8461 27.8347 20.9517 27.7964 19.5823C27.7396 17.5642 26.5291 15.0862 26.4763 13.068C26.4604 12.4518 27.0241 13.0172 26.4763 13.068C26.3004 13.0774 26.1244 13.0502 25.9599 12.988C25.7955 12.9259 25.6462 12.8302 25.5216 12.7073C25.3971 12.5844 25.3002 12.437 25.2372 12.2747C25.1742 12.1123 25.1466 11.9387 25.1561 11.7652C25.2301 11.1137 25.3832 10.3907 26.4763 10.4623C27.1429 10.5053 26.4908 9.80437 26.4763 9.15946C26.4551 8.2227 26.4525 7.49049 26.4763 6.55373C26.4934 5.86973 27.1733 5.04763 26.4763 5.25087C26.0368 5.28221 25.5956 5.28221 25.1561 5.25087Z" fill="#111112"/>
<path d="M108.329 6.55359C108.57 5.34844 109.4 5.18428 109.649 3.94787C109.138 3.95906 108.637 4.08171 108.18 4.30698C107.724 4.53225 107.324 4.85456 107.008 5.25073C105.199 7.37439 105.191 9.15931 105.688 11.765C105.951 13.7452 106.881 15.5807 108.329 16.9765C110.479 18.8148 114.224 19.1262 116.249 16.9765C116.581 16.6247 115.886 15.985 116.249 15.6736C116.381 15.5616 117.377 15.7049 117.569 15.6736C117.569 15.8586 117.625 15.5095 117.569 15.6736C116.706 18.2103 114.478 19.6916 112.289 20.8851C108.121 23.1586 103.708 23.0999 100.408 19.5822C96.4791 15.3818 96.8434 5.58556 103.048 2.645C105.878 1.30306 107.956 1.47243 110.969 1.34214C111.989 1.29785 113.907 1.35778 114.929 1.34214C115.577 1.33302 115.107 1.94016 114.929 2.645C114.743 3.37852 115.139 4.52503 114.929 5.25073C114.871 5.45137 115.098 5.1921 114.929 5.25073C113.148 5.86698 111.44 5.96991 109.649 6.55359C109.209 6.58203 108.768 6.58203 108.329 6.55359Z" fill="#111112"/>
</svg>
